<?xml version="1.0" encoding="iso-8859-1"?>
<!-- Generator: Adobe Illustrator 19.0.0, SVG Export Plug-In . SVG Version: 6.00 Build 0)  -->
<svg version="1.1" id="Layer_1" xmlns="http://www.w3.org/2000/svg" xmlns:xlink="http://www.w3.org/1999/xlink" x="0px" y="0px"
	 viewBox="0 0 496 496" style="enable-background:new 0 0 496 496;" xml:space="preserve">
<g>
	<g>
		<g>
			<path d="M259.2,326.4c-7.224,9.624-11.2,21.552-11.2,33.6c0,30.872,25.128,56,56,56s56-25.128,56-56
				c0-12.048-3.976-23.976-11.2-33.592L304,266.664L259.2,326.4z M344,360c0,22.056-17.944,40-40,40c-22.056,0-40-17.944-40-40
				c0-8.6,2.84-17.128,8-24l32-42.664l32,42.672C341.16,342.872,344,351.4,344,360z"/>
			<path d="M252.8,158.408L208,98.664L163.2,158.4c-7.224,9.624-11.2,21.552-11.2,33.6c0,30.872,25.128,56,56,56s56-25.128,56-56
				C264,179.952,260.024,168.024,252.8,158.408z M208,232c-22.056,0-40-17.944-40-40c0-8.6,2.84-17.128,8-24l32-42.664l32,42.672
				c5.16,6.864,8,15.392,8,23.992C248,214.056,230.056,232,208,232z"/>
			<path d="M464,216c-17.648,0-32,14.352-32,32c0,3.64,0.744,7.088,1.864,10.352l-33.92,20.352L312,227.408V124.592l96-56V0h-16
				v59.408l-88,51.336l-88-51.336V0h-16v59.408l-87.856,51.248L62.904,79.88C63.552,77.344,64,74.736,64,72
				c0-17.648-14.352-32-32-32S0,54.352,0,72s14.352,32,32,32c9.144,0,17.352-3.904,23.192-10.072L104,124.432v102.976l-92.032,53.68
				l8.064,13.832L112,241.256l44,25.664l44,25.664V395.4l-80.552,46.984C113.6,436.04,105.296,432,96,432c-17.648,0-32,14.352-32,32
				s14.352,32,32,32s32-14.352,32-32c0-2.592-0.392-5.08-0.976-7.496L208,409.264l88,51.328V496h16v-35.408l38.76-22.616
				l49.28-28.744l51.992,29.712l7.936-13.888L408,395.36V292.528l34.704-20.824C448.376,276.808,455.792,280,464,280
				c17.648,0,32-14.352,32-32S481.648,216,464,216z M32,88c-8.824,0-16-7.176-16-16s7.176-16,16-16s16,7.176,16,16S40.824,88,32,88z
				 M96,480c-8.824,0-16-7.176-16-16c0-8.824,7.176-16,16-16s16,7.176,16,16C112,472.824,104.824,480,96,480z M164,253.072
				l-44-25.664V124.592l88-51.336l88,51.336v102.816l-44,25.664l-44,25.664L164,253.072z M392,395.408L342.648,424.2L304,446.744
				l-88-51.336V292.592l44-25.664l44-25.664l88,51.336V395.408z M464,264c-8.824,0-16-7.176-16-16c0-8.824,7.176-16,16-16
				c8.824,0,16,7.176,16,16C480,256.824,472.824,264,464,264z"/>
			<rect x="424" y="168" width="16" height="16"/>
			<rect x="392" y="168" width="16" height="16"/>
			<rect x="360" y="168" width="16" height="16"/>
			<rect x="136" y="336" width="16" height="16"/>
			<rect x="104" y="336" width="16" height="16"/>
			<rect x="72" y="336" width="16" height="16"/>
		</g>
	</g>
</g>
<g>
</g>
<g>
</g>
<g>
</g>
<g>
</g>
<g>
</g>
<g>
</g>
<g>
</g>
<g>
</g>
<g>
</g>
<g>
</g>
<g>
</g>
<g>
</g>
<g>
</g>
<g>
</g>
<g>
</g>
</svg>
